<svg clip-rule="evenodd" fill-rule="evenodd" stroke-linecap="round" stroke-linejoin="round" stroke-miterlimit="1.5" viewBox="0 0 1651 1331" xmlns="http://www.w3.org/2000/svg" xmlns:xlink="http://www.w3.org/1999/xlink"><linearGradient id="a"><stop offset="0" stop-color="#0034ff"/><stop offset=".13" stop-color="#f400fe"/><stop offset=".28" stop-color="#ff002d"/><stop offset=".42" stop-color="#e3cc21"/><stop offset=".57" stop-color="#42d655"/><stop offset=".73" stop-color="#6bc9bd"/><stop offset="1" stop-color="#00eaff"/></linearGradient><linearGradient id="b" gradientTransform="matrix(528.666 0 0 372.181 85.4665 216.091)" gradientUnits="userSpaceOnUse" x1="0" x2="1" xlink:href="#a" y1="0" y2="0"/><linearGradient id="c" gradientTransform="matrix(1376.84 0 0 884.177 249.449 868.189)" gradientUnits="userSpaceOnUse" x1="0" x2="1" xlink:href="#a" y1="0" y2="0"/><g fill="none" stroke-width="40"><path d="m20.001 98s.232 115.986 0 184c-.751 220.069 524 1028 524 1028h70.131" stroke="#fff"/><path d="m880.259 1141.61 39.296-175.043" stroke="#fff"/><path d="m85.467 89.58 100.534 288.42s1.229 10.909 18.404 18.506c20.667 9.141 33.596 4.494 33.596 4.494l351-67s20.21-2.677 24.143-16.828-5.143-37.172-5.143-37.172l-69-250" stroke="url(#b)"/><g stroke="#fff"><path d="m486.001 965s421.095-154.541 575.999-168"/><path d="m833.97 992.347s-64.639-51.186-134.089-25.006c-61.74 23.274-85.081 97.959-32.151 190.229 54.216 94.51 161.616 133.27 223.271 108.96 61.656-24.32 58.944-121.46 58.944-121.46l88.415-33.05s117.91 83.03 173.26 45.55 14.09-142.18-53.59-199.16c-67.67-56.984-150.45-92.076-197.368-71.447-46.92 20.63-41.082 80.378-41.082 80.378z"/><path d="m1104.42 1148.76s-95.52-152.316-207.193-83.06c-.134.08-16.968 75.91-16.968 75.91l-53.459 28.58s-73.501-93.29-170.706-33.04"/><path d="m833.818 991.574-7.018 178.616"/></g><path d="m706.001 1310.28s-117.708-172.3-227.388-357.24c-99.808-168.299-190.562-347.417-226.612-410.04-3.553-6.172-3.25-15.027 0-21.364 3.333-6.5 20-17.636 20-17.636s302.352-64.785 370-77c11.834-2.137 25.219-.293 35.886 3.707 10.666 4 19.622 12.453 28.114 20.293 70.998 65.549 329.399 324.452 520.389 502.04 236.02 219.45 399.89 357.24 399.89 357.24z" stroke="url(#c)"/><path d="m623.001 1310s-367.626-590.244-456-798-147-414-147-414l585-78s65.561 267.58 119 352 721.659 717.08 906.279 854c.27-.24.2 83.86-.28 84 .06.52-697.597.17-931.555.04-47.131-.02-75.444-.04-75.444-.04z" stroke="#fff"/></g></svg>