<svg clip-rule="evenodd" fill-rule="evenodd" stroke-linecap="round" stroke-linejoin="round" stroke-miterlimit="1.5" viewBox="0 0 1575 991" xmlns="http://www.w3.org/2000/svg" xmlns:xlink="http://www.w3.org/1999/xlink"><linearGradient id="a" gradientTransform="matrix(2795.2 0 0 50.4179 232.118 216.082)" gradientUnits="userSpaceOnUse" x1="0" x2="1" y1="0" y2="0"><stop offset="0" stop-color="#0034ff"/><stop offset=".13" stop-color="#f400fe"/><stop offset=".28" stop-color="#ff002d"/><stop offset=".42" stop-color="#e3cc21"/><stop offset=".57" stop-color="#42d655"/><stop offset=".73" stop-color="#6bc9bd"/><stop offset="1" stop-color="#00eaff"/></linearGradient><path d="m170.118 263.192c11.834-14.97 38.748-40.849 52.625-53.966 109.046-2.502 359.863-7.005 584.996-11.26 13.198 11.46 64.619 52.145 76.179 65.226-231.823 5.461-557.019-4.726-713.8 0zm953.772-5.951c-64.3 1.206-100.9 1.971-166.489 3.436-6.083-9.169-41.484-45.897-48.184-54.615l-.025-.032c-.554-.722-1.11-1.441-1.668-2.158l-1.276-1.634-1.544-1.956-1.106-1.389-1.473-1.834-.668-.824c73.593-1.328 148.543-2.599 222.433-3.74z" fill="url(#a)"/><g fill="none" stroke="#fff" stroke-width="30"><path d="m1559.89 15h-395.75c-22.21 0-40.25 18.035-40.25 40.25v494.5c0 22.215 18.04 40.25 40.25 40.25h395.75z"/><path d="m901.457 195.82c73.593-1.347 148.543-2.637 222.433-3.794v205.609c-42.24-.579-84.96-1.198-127.814-1.849l-.33-1.549-.324-1.496c-.197-.901-.396-1.801-.596-2.693l-.373-1.647c-.209-.916-.42-1.832-.636-2.752l-.371-1.575c-.223-.937-.449-1.873-.678-2.812l-.37-1.502c-.353-1.426-.712-2.849-1.078-4.271l-.008-.029c-16.056-62.342-44.326-119.805-82.095-169.669l-.025-.033c-.554-.731-1.11-1.461-1.668-2.189l-1.276-1.658-1.544-1.984-1.106-1.409-1.473-1.861zm-661.052 186.279c-27.507-.564-91.264-1.087-113.648-1.557 19.992-66.099 56.772-124.939 105.361-171.54 109.046-2.539 350.488-7.107 575.621-11.425 58.347 51.407 101.499 119.686 121.798 197.178-13.526-.214-27.042-.431-40.552-.649-4.459-.503-9.069-.766-13.786-.766l-128.291-22.641c-8.776-28.754-35.538-49.699-67.154-49.699h-307.6c-31.615 0-58.377 20.945-67.154 49.699zm-144.975-100.072c-13.688 27.524-24.813 56.547-33.06 86.753l-.473 1.745-.554 2.076-.377 1.436-.373 1.438-.369 1.44-.346 1.372c-8.568-.187-13.071-.287-13.071-.287s-28.112 1.036-31.353-3c-3.24-4.036 11.911-21.215 11.911-21.215l68.26-72.149z"/><path d="m525.954 15c265.196 0 480.496 215.305 480.496 480.5s-215.3 480.5-480.496 480.5c-265.195 0-480.5-215.305-480.5-480.5s215.305-480.5 480.5-480.5zm-414.913 517.064c10.039 14.962 35.669 25.613 65.669 25.613l187.756 33.559 15.488 49.564c0 25.905 14.062 48.551 34.967 60.718l29.147 163.073c0 15.187 2.73 29.255 7.368 40.749-182.65-33.045-324.019-185.371-340.395-373.276zm829.827 0c-16.348 187.678-157.413 339.878-339.786 373.165 4.61-11.469 7.323-25.497 7.323-40.638l28.92-163.871c20.163-12.339 33.629-34.57 33.629-59.92l15.64-49.412 188.605-33.711c30 0 55.63-10.651 65.669-25.613zm-6.953-120.805c-12.552-10.79-34.171-17.919-58.716-17.919l-128.291-22.641c-8.776-28.754-35.538-49.699-67.154-49.699h-307.6c-31.615 0-58.377 20.945-67.154 49.699l-128.29 22.641c-24.545 0-46.164 7.129-58.716 17.919 38.985-189.536 206.937-332.259 407.96-332.259 201.024 0 368.976 142.723 407.961 332.259z"/><path d="m1559.89 590v336.288l-279.5 7.018s37-77.657 38.97-117.554c2.84-57.218-21.97-225.752-21.97-225.752z"/><path d="m1559.89 590v386h-337.26s44.64-117.726 47.03-162.586c3.42-64.333-26.51-223.414-26.51-223.414z"/><path d="m1559.89 67.314h-346.71c-18.17 0-32.92 14.754-32.92 32.926v404.52c0 18.172 14.75 32.926 32.92 32.926h346.71z"/></g></svg>