<svg clip-rule="evenodd" fill-rule="evenodd" stroke-linecap="round" stroke-linejoin="round" stroke-miterlimit="1.5" viewBox="0 0 3588 2208" xmlns="http://www.w3.org/2000/svg" xmlns:xlink="http://www.w3.org/1999/xlink"><linearGradient id="a"><stop offset="0" stop-color="#0034ff"/><stop offset=".13" stop-color="#f400fe"/><stop offset=".28" stop-color="#ff002d"/><stop offset=".42" stop-color="#e3cc21"/><stop offset=".57" stop-color="#42d655"/><stop offset=".73" stop-color="#6bc9bd"/><stop offset="1" stop-color="#00eaff"/></linearGradient><linearGradient id="b" gradientUnits="userSpaceOnUse" x1="76.4374" x2="3431.4374" xlink:href="#a" y1="612.418" y2="612.418"/><linearGradient id="c" gradientUnits="userSpaceOnUse" x1="575.853" x2="3405.433" xlink:href="#a" y1="908" y2="908"/><g fill="none" stroke-width="60"><path d="m3431.44 444.418-3355.003 336" stroke="url(#b)"/><path d="m3405.44 521.418-2749.218 269.625s-71.961 7.225-78.785 38.375c-.096.441-.087.916-.216 1.377-9.997 35.941 38.059 69.146 38.059 69.146s480.44 403.989 695.16 394.479" stroke="url(#c)"/><g stroke="#fff"><path d="m1831.44 1163.42s-341.48-14.94-345 25.82"/><path d="m1066.44 811.976s240.87 257.144 375 351.444c134.13 94.29 253.66 81.66 312.5 69s72.5-69 72.5-69 1143.5 36.32 1323 69"/><path d="m38.405 389.418c-14.416 19.831-6.708 59.012-3 88.191 31.923 251.241 194.539 1419.251 194.539 1419.251 4.749 18.77 12.595 98.5 28.493 112.6 15.899 14.1 115.607 18.43 173.9 23 348.833 27.33 1535.783 125.99 1919.103 140.96 127.98 5 281.81 15.71 380.81-51.13 99-66.83 161.6-223.42 213.19-349.87 137.38-336.76 511.29-1385.532 611.12-1670.698 4.64-13.242-4.32-28.645-12.12-40.304-8-11.943-20.03-32.726-35.84-31.353-570.42 49.534-2808.336 268.663-3386.703 328.555-29.506 3.056-69.077 10.966-83.492 30.798z"/><path d="m3127.44 1294.58c-423.72 16.57-1271.17 49.7-1623-22.16-207.95-42.48-386-339.169-488-409.002-34.219-23.426-152.055-40.539-124.003-10 94 102.333 500.473 584.822 688.003 624.002 415.6 86.82 1107.2 71.6 1453 64"/><path d="m163.437 1416.42s519.711 188.31 642 289c122.29 100.69 382.003 387 382.003 387"/><path d="m1436.44 1401.42s-229.3-10.62-364 24c-134.703 34.61-207.429 100.46-179.003 187 35.454 107.93 397.673 151.05 632.003 158s438.91 33.25 616-79c177.09-112.26 197-146 197-146"/><path d="m888.161 841.418s-4.324-68.351 164.279-32.721c168.6 35.63 150.39 66.054 146 79.721-4.39 13.666-30 28-30 28"/><path d="m707.437 1646.42s232.204 86.31 415.003 131.67c409.52 101.61 1484.17 19.9 1830-23.67"/></g></g></svg>